<?xml version="1.0" encoding="iso-8859-1"?>
<!-- Uploaded to: SVG Repo, www.svgrepo.com, Generator: SVG Repo Mixer Tools -->
<!DOCTYPE svg PUBLIC "-//W3C//DTD SVG 1.1//EN" "http://www.w3.org/Graphics/SVG/1.1/DTD/svg11.dtd">
<svg fill="#000000" version="1.1" id="Capa_1" xmlns="http://www.w3.org/2000/svg" xmlns:xlink="http://www.w3.org/1999/xlink" 
	 width="800px" height="800px" viewBox="0 0 31.61 31.61" xml:space="preserve"
	>
<g>
	<path d="M26.7,26.512l-1.394-8.346c-0.364-2.186-2.257-3.789-4.474-3.789h-2.271c0.334-0.134,0.656-0.292,0.966-0.471
		c4.324,0.104,5.766-1.275,5.766-1.275c-1.034-0.258-1.575-1.373-1.856-2.426c-0.188-0.705-0.258-1.447-0.199-2.174
		c0.015-0.19,0.022-0.382,0.022-0.576C23.26,3.338,19.923,0,15.805,0C11.688,0,8.35,3.337,8.35,7.455
		c0,0.188,0.007,0.374,0.021,0.558c0.06,0.775-0.019,1.566-0.232,2.314c-0.291,1.016-0.829,2.056-1.823,2.305
		c0,0,1.441,1.379,5.768,1.275c0.309,0.179,0.63,0.337,0.965,0.471h-2.271c-2.218,0-4.109,1.602-4.475,3.789L4.91,26.514
		c-0.211,1.27,0.146,2.566,0.977,3.549c0.832,0.98,2.053,1.548,3.34,1.548h13.155c1.287,0,2.507-0.565,3.339-1.548
		C26.555,29.079,26.911,27.782,26.7,26.512z M10.911,7.428c0-0.578,0.119-1.125,0.303-1.64h9.184
		c0.185,0.515,0.304,1.062,0.304,1.64c0,2.704-2.191,4.895-4.896,4.895C13.103,12.323,10.911,10.132,10.911,7.428z"/>
</g>
</svg>